<svg width="214" height="234" viewBox="0 0 214 234" fill="none" xmlns="http://www.w3.org/2000/svg">
<path d="M112.052 35.9073C113.521 35.4622 118.266 34.5808 120.503 33.6105C121.445 33.2016 122.138 32.3507 122.584 31.3158C122.826 30.7525 122.735 29.9871 122.441 29.4618C121.094 27.0539 116.815 27.156 111.108 27.225C109.956 27.2389 109.684 27.886 109.459 28.4803C108.383 31.3251 108.491 37.9372 109.893 42.0569C110.894 44.9998 115.453 44.6587 117.754 45.1795C122.036 46.1487 125.397 43.626 127.916 41.4849C130.611 39.1945 131.339 36.3569 131.562 34.9548C131.943 32.5532 131.344 30.4233 130.678 29.2392C129.414 26.9889 126.608 26.1233 124.375 24.8569C122.102 23.5673 119.779 23.5949 115.853 23.0741C114.598 22.9076 113.12 22.9985 111.923 23.586C110.725 24.1736 109.844 25.3488 107.48 30.2141C105.116 35.0794 101.297 43.5993 98.7422 48.8697C95.2692 56.0333 92.9198 58.6003 91.3641 60.2295C87.855 63.9042 81.6579 70.7436 77.418 75.9538C75.7942 77.9493 74.9631 80.2605 72.3702 84.4848C70.8853 86.904 68.0101 93.57 63.6968 104.712C61.2583 111.011 59.379 114.839 58.3485 117.565C54.3912 128.035 53.1515 130.267 51.5936 134.636C49.2745 141.139 42.4772 151.473 41.0572 154.008C39.5667 156.669 37.2869 160.367 34.9055 164.756C30.7717 172.374 28.224 176.561 27.2581 179.154C25.616 183.562 24.3691 186.496 23.8417 189.764C23.4023 192.485 22.2859 195.399 22.0611 197.854C21.8223 200.462 22.277 204.889 23.539 207.277C24.791 209.647 28.5 210.249 30.7323 210.99C34.0771 212.1 39.6105 212.626 42.6775 211.37C45.061 210.395 46.9018 207.302 49.5014 204.326C51.2135 202.366 53.1337 199.289 55.0678 197.128C58.7345 193.031 61.0037 186.674 63.5209 182.301C66.1494 177.734 67.3869 175.688 69.2365 173.169C71.8522 169.606 72.2834 166.786 73.0245 164.56C73.2349 163.928 73.7612 163.376 73.8414 162.78C73.9215 162.183 73.6277 161.595 72.8153 161.146C68.3754 158.689 61.9296 161.275 57.6095 163.875C55.4762 165.158 53.3118 167.801 46.3454 178.088C43.7476 181.924 41.8807 185.597 39.6506 189.022C37.4423 192.414 35.7868 196.147 35.3439 197.776C34.3621 201.388 41.2664 181.333 43.1961 178.364C45.9894 174.066 47.7921 171.246 49.6483 167.834C52.1258 163.28 55.0656 158.048 56.7682 153.456C59.0581 147.281 60.4072 141.449 62.0431 136.594C62.3224 135.766 62.4904 135.039 64.0351 131.135C65.5797 127.231 68.5176 120.18 70.4717 115.74C74.6176 106.32 77.171 100.772 78.8825 96.6837C80.8462 91.9928 83.5453 88.0148 85.633 84.5138C88.6373 79.4756 91.1215 75.9783 93.6387 72.2058C96.3401 68.1573 99.2852 66.0296 100.469 65.7336C101.066 65.5844 101.653 65.4376 102.176 65.6557C102.699 65.8738 103.14 66.4614 102.926 67.8658C101.804 75.2454 99.0003 78.48 96.7858 83.2808C92.7331 92.0663 88.1702 98.3641 86.7636 100.436C83.908 104.643 82.5304 108.602 80.0977 114.053C78.1448 118.429 75.1679 126.261 73.5053 130.639C70.614 138.252 68.5799 143.318 67.3201 149.379C66.6577 152.566 67.0931 158.061 67.4604 160.788C67.8276 163.514 68.5621 163.367 69.1608 163.145C72.1579 162.03 74.5002 157.438 79.4634 149.303C82.782 143.864 83.2604 140.523 87.5515 129.136C89.0372 125.194 90.3826 122.281 92.3745 117.774C93.6207 114.955 95.9823 111.358 99.174 104.178C102.366 96.9976 106.479 86.4212 108.818 80.6789C111.902 73.107 113.53 71.527 116.12 69.8177C118.989 67.9248 122.419 67.957 125.239 68.2508C126.19 68.3499 126.002 69.1322 125.78 69.6552C124.96 71.5824 123.928 73.2897 122.592 75.2928C120.186 78.9027 118.729 82.4862 117.4 85.453C115.82 88.9813 114.438 93.0047 111.408 102.815C109.267 109.753 107.057 120.999 105.697 127.264C103.634 136.769 102.268 142.116 101.001 148.504C100.27 152.195 100.184 154.304 100.18 159.412C100.179 160.55 100.621 160.981 101.066 161.208C103.076 162.234 110.654 161.88 115.604 160.774C118.853 160.048 118.871 156.102 120.06 152.622C120.688 150.782 120.954 144.133 121.322 133.763C121.608 125.674 123.474 120.06 124.213 115.693C125.602 107.481 127.329 102.544 128.664 96.0294C130.235 88.3679 131.486 82.5218 132.523 78.431C132.739 77.582 133.115 77.0199 133.707 76.6438C134.299 76.2677 135.181 76.1208 135.635 79.5706C137.006 89.9912 135.795 98.0703 135.203 100.285C134.24 103.889 133.28 109.323 131.281 116.054C127.532 128.679 128.228 132.484 127.93 136.345C127.799 138.03 127.186 142.993 127.48 150.109C127.656 154.375 130.73 158.733 133.621 163.701C136.295 168.295 138.751 172.403 140.46 174.337C141.966 176.041 143.354 178.19 145.575 181.083C148.173 184.468 151.936 188.998 159.285 195.764C163.095 199.271 168.717 200.901 172.131 202.307C175.551 203.716 178.216 204.613 182.657 206.091C186.724 207.445 190.093 205.806 191.277 204.475C194.019 201.393 193.956 194.126 192.924 188.235C192.512 185.887 190.845 183.999 187.239 178.328C184.225 173.586 178.199 165.459 173.703 158.798C169.207 152.136 166.269 147.289 164.388 144.351C161.893 140.453 160.282 138.008 158.802 135.045C157.551 132.542 155.096 129.114 151.842 122.686C149.893 118.835 148.001 113.468 146.28 108.76C141.134 94.6809 139.356 91.1129 138.246 89.3301C137.938 88.8365 137.433 88.4421 136.912 88.7292C135.406 89.5596 134.905 92.1323 134.386 98.6112C133.951 104.049 134.015 113.904 134.086 119.855C134.157 125.807 134.451 127.569 136.952 134.28C139.454 140.99 144.155 152.595 146.797 158.94C150.654 168.206 153.885 170.925 155.372 172.41C157.205 174.24 160.117 175.225 162.267 176.343C166.485 178.535 171.967 180.264 175.546 181.684C180.059 183.475 183.104 189.452 186.305 194.506C186.971 195.559 187.564 196.289 187.573 196.668C187.582 197.046 186.994 197.046 186.471 196.899C184.298 196.289 182.392 194.972 179.799 192.902C173.735 188.061 167.702 183.104 165.848 180.369C163.706 177.208 161.47 173.619 159.768 170.656C158.353 168.195 154.958 161.199 151.028 151.56C148.409 145.137 147.378 139.953 145.886 135.117C144.893 131.895 143.67 125.718 141.373 118.972C140.09 115.203 139.058 113.517 136.044 105.5C133.291 98.1738 127.596 84.4092 124.573 77.0756C120.92 68.2123 119.628 65.8916 117.476 62.0367C115.865 59.1515 113.992 56.5438 112.871 54.6097C111.715 52.6162 109.835 50.6057 108.052 49.5618C106.129 48.4357 104.493 47.0446 103.376 45.0415C101.079 42.1437 97.8252 39.4862 95.5884 38.0618C95.141 37.8392 94.7004 37.5454 94.2463 37.2428" stroke="white" stroke-width="20" stroke-linecap="round"/>
<path d="M128.407 170L159.407 212.5C167.907 223 181.807 225.5 193.407 217.5C201.907 212.5 209.654 197.441 197.907 176.5C186.407 156 150.407 86.3333 134.407 57.5" stroke="#4D90FE" stroke-width="19"/>
<path d="M89.4066 167.5L65.4066 211C54.9066 226.5 35.5066 227 23.9066 219C15.4066 214 3.42352 200 14.4066 178C25.3897 156 73.9066 58.3333 89.9066 29.5" stroke="#4D90FE" stroke-width="19"/>
<circle cx="114.907" cy="35.5" r="26" stroke="#4D90FE" stroke-width="19"/>
<circle cx="107.907" cy="155.5" r="23" stroke="#4D90FE" stroke-width="17"/>
</svg>
